<svg width="24" height="24" viewBox="0 0 24 24" fill="none" xmlns="http://www.w3.org/2000/svg">
<g clip-path="url(#clip0_670_425)">
<path d="M15.84 10.74L10.26 5.16C10.54 5.04 10.825 4.95 11.115 4.89C11.405 4.83 11.7 4.8 12 4.8C13.18 4.8 14.175 5.205 14.985 6.015C15.795 6.825 16.2 7.82 16.2 9C16.2 9.3 16.17 9.595 16.11 9.885C16.05 10.175 15.96 10.46 15.84 10.74ZM4.62 18.12C5.64 17.34 6.78 16.725 8.04 16.275C9.3 15.825 10.62 15.6 12 15.6C12.36 15.6 12.705 15.615 13.035 15.645C13.365 15.675 13.71 15.72 14.07 15.78L11.43 13.14C10.49 13.02 9.685 12.625 9.015 11.955C8.345 11.285 7.95 10.48 7.83 9.54L4.41 6.12C3.77 6.94 3.275 7.845 2.925 8.835C2.575 9.825 2.4 10.88 2.4 12C2.4 13.18 2.595 14.29 2.985 15.33C3.375 16.37 3.92 17.3 4.62 18.12ZM19.56 17.88C20.2 17.06 20.7 16.155 21.06 15.165C21.42 14.175 21.6 13.12 21.6 12C21.6 9.34 20.665 7.075 18.795 5.205C16.925 3.335 14.66 2.4 12 2.4C10.88 2.4 9.825 2.58 8.835 2.94C7.845 3.3 6.94 3.8 6.12 4.44L19.56 17.88ZM12 24C10.36 24 8.81 23.685 7.35 23.055C5.89 22.425 4.615 21.565 3.525 20.475C2.435 19.385 1.575 18.11 0.945 16.65C0.315 15.19 0 13.64 0 12C0 10.34 0.315 8.785 0.945 7.335C1.575 5.885 2.435 4.615 3.525 3.525C4.615 2.435 5.89 1.575 7.35 0.945C8.81 0.315 10.36 0 12 0C13.66 0 15.215 0.315 16.665 0.945C18.115 1.575 19.385 2.435 20.475 3.525C21.565 4.615 22.425 5.885 23.055 7.335C23.685 8.785 24 10.34 24 12C24 13.64 23.685 15.19 23.055 16.65C22.425 18.11 21.565 19.385 20.475 20.475C19.385 21.565 18.115 22.425 16.665 23.055C15.215 23.685 13.66 24 12 24ZM12 21.6C13.06 21.6 14.06 21.445 15 21.135C15.94 20.825 16.8 20.38 17.58 19.8C16.8 19.22 15.94 18.775 15 18.465C14.06 18.155 13.06 18 12 18C10.94 18 9.94 18.155 9 18.465C8.06 18.775 7.2 19.22 6.42 19.8C7.2 20.38 8.06 20.825 9 21.135C9.94 21.445 10.94 21.6 12 21.6Z" fill="#FFF0D7"/>
</g>
<defs>
<clipPath id="clip0_670_425">
<rect width="24" height="24" fill="white"/>
</clipPath>
</defs>
</svg>
