<svg width="22" height="23" viewBox="0 0 22 23" fill="none" xmlns="http://www.w3.org/2000/svg">
<path d="M11.6835 19.0915C12.5604 19.0915 13.4029 18.9581 14.211 18.6913C15.0191 18.4245 15.7757 18.0415 16.4807 17.5423C15.7757 17.043 15.0191 16.66 14.211 16.3932C13.4029 16.1264 12.5604 15.993 11.6835 15.993C10.8066 15.993 9.96405 16.1264 9.15592 16.3932C8.34779 16.66 7.59125 17.043 6.88628 17.5423C7.59125 18.0415 8.34779 18.4245 9.15592 18.6913C9.96405 18.9581 10.8066 19.0915 11.6835 19.0915ZM14.4173 10.6221L12.9472 9.15024C13.0332 9.01252 13.102 8.8662 13.1536 8.71127C13.2052 8.55634 13.2309 8.40141 13.2309 8.24648C13.2309 7.81612 13.0805 7.45031 12.7796 7.14906C12.4787 6.84781 12.1133 6.69718 11.6835 6.69718C11.5287 6.69718 11.374 6.723 11.2192 6.77465C11.0645 6.82629 10.9183 6.89515 10.7808 6.98122L9.31067 5.50939C9.63736 5.21674 10.0027 4.99726 10.4068 4.85094C10.8109 4.70462 11.2364 4.63146 11.6835 4.63146C12.6807 4.63146 13.5318 4.98435 14.2368 5.69014C14.9418 6.39593 15.2943 7.24804 15.2943 8.24648C15.2943 8.69405 15.2212 9.12011 15.075 9.52465C14.9289 9.92919 14.7097 10.295 14.4173 10.6221ZM20.2978 16.5094L18.8019 15.0117C19.1801 14.3748 19.4639 13.7034 19.653 12.9977C19.8421 12.2919 19.9367 11.5689 19.9367 10.8286C19.9367 8.52191 19.1372 6.56808 17.5381 4.96714C15.939 3.3662 13.9875 2.56573 11.6835 2.56573C10.9441 2.56573 10.222 2.66041 9.517 2.84977C8.81204 3.03912 8.14146 3.32316 7.50528 3.70188L6.00938 2.20423C6.8519 1.65336 7.75459 1.23161 8.71747 0.938967C9.68034 0.646322 10.669 0.5 11.6835 0.5C13.1106 0.5 14.4517 0.771127 15.7069 1.31338C16.9621 1.85563 18.0539 2.59155 18.9824 3.52113C19.9109 4.4507 20.646 5.54382 21.1876 6.80047C21.7292 8.05712 22 9.39984 22 10.8286C22 11.8443 21.8538 12.8341 21.5615 13.7981C21.2692 14.7621 20.848 15.6659 20.2978 16.5094ZM11.6835 21.1573C10.2563 21.1573 8.9152 20.8862 7.66002 20.3439C6.40485 19.8016 5.31301 19.0657 4.38452 18.1361C3.45604 17.2066 2.72098 16.1135 2.17937 14.8568C1.63775 13.6002 1.36694 12.2574 1.36694 10.8286C1.36694 9.81299 1.50879 8.82316 1.7925 7.85915C2.0762 6.89515 2.49316 5.98279 3.04338 5.12207L0 2.0493L1.47011 0.577465L21.8968 21.0282L20.4267 22.5L4.56506 6.64554C4.18679 7.28247 3.90309 7.95383 3.71395 8.65962C3.52481 9.36541 3.43025 10.0884 3.43025 10.8286C3.43025 11.8099 3.59359 12.748 3.92028 13.6432C4.24697 14.5383 4.71981 15.356 5.3388 16.0962C6.26729 15.3905 7.26886 14.8525 8.34349 14.4824C9.41813 14.1123 10.5315 13.9272 11.6835 13.9272C12.3368 13.9272 12.9902 13.9961 13.6436 14.1338C14.297 14.2715 14.9332 14.4609 15.5522 14.7019L18.9824 18.1361C18.0023 19.1174 16.8847 19.8662 15.6295 20.3826C14.3744 20.8991 13.059 21.1573 11.6835 21.1573Z" fill="#FFF0D7"/>
</svg>
