<svg width="22" height="22" viewBox="0 0 22 22" fill="none" xmlns="http://www.w3.org/2000/svg">
<path d="M4.235 16.61C5.17 15.895 6.215 15.3313 7.37 14.9188C8.525 14.5063 9.735 14.3 11 14.3C12.265 14.3 13.475 14.5063 14.63 14.9188C15.785 15.3313 16.83 15.895 17.765 16.61C18.4067 15.8583 18.9063 15.0058 19.2638 14.0525C19.6213 13.0992 19.8 12.0817 19.8 11C19.8 8.56167 18.9429 6.48542 17.2288 4.77125C15.5146 3.05708 13.4383 2.2 11 2.2C8.56167 2.2 6.48542 3.05708 4.77125 4.77125C3.05708 6.48542 2.2 8.56167 2.2 11C2.2 12.0817 2.37875 13.0992 2.73625 14.0525C3.09375 15.0058 3.59333 15.8583 4.235 16.61ZM11 12.1C9.91833 12.1 9.00625 11.7288 8.26375 10.9863C7.52125 10.2438 7.15 9.33167 7.15 8.25C7.15 7.16833 7.52125 6.25625 8.26375 5.51375C9.00625 4.77125 9.91833 4.4 11 4.4C12.0817 4.4 12.9938 4.77125 13.7363 5.51375C14.4788 6.25625 14.85 7.16833 14.85 8.25C14.85 9.33167 14.4788 10.2438 13.7363 10.9863C12.9938 11.7288 12.0817 12.1 11 12.1ZM11 22C9.47833 22 8.04833 21.7113 6.71 21.1338C5.37167 20.5562 4.2075 19.7725 3.2175 18.7825C2.2275 17.7925 1.44375 16.6283 0.86625 15.29C0.28875 13.9517 0 12.5217 0 11C0 9.47833 0.28875 8.04833 0.86625 6.71C1.44375 5.37167 2.2275 4.2075 3.2175 3.2175C4.2075 2.2275 5.37167 1.44375 6.71 0.86625C8.04833 0.28875 9.47833 0 11 0C12.5217 0 13.9517 0.28875 15.29 0.86625C16.6283 1.44375 17.7925 2.2275 18.7825 3.2175C19.7725 4.2075 20.5562 5.37167 21.1338 6.71C21.7113 8.04833 22 9.47833 22 11C22 12.5217 21.7113 13.9517 21.1338 15.29C20.5562 16.6283 19.7725 17.7925 18.7825 18.7825C17.7925 19.7725 16.6283 20.5562 15.29 21.1338C13.9517 21.7113 12.5217 22 11 22ZM11 19.8C11.9717 19.8 12.8883 19.6579 13.75 19.3738C14.6117 19.0896 15.4 18.6817 16.115 18.15C15.4 17.6183 14.6117 17.2104 13.75 16.9263C12.8883 16.6421 11.9717 16.5 11 16.5C10.0283 16.5 9.11167 16.6421 8.25 16.9263C7.38833 17.2104 6.6 17.6183 5.885 18.15C6.6 18.6817 7.38833 19.0896 8.25 19.3738C9.11167 19.6579 10.0283 19.8 11 19.8ZM11 9.9C11.4767 9.9 11.8708 9.74417 12.1825 9.4325C12.4942 9.12083 12.65 8.72667 12.65 8.25C12.65 7.77333 12.4942 7.37917 12.1825 7.0675C11.8708 6.75583 11.4767 6.6 11 6.6C10.5233 6.6 10.1292 6.75583 9.8175 7.0675C9.50583 7.37917 9.35 7.77333 9.35 8.25C9.35 8.72667 9.50583 9.12083 9.8175 9.4325C10.1292 9.74417 10.5233 9.9 11 9.9Z" fill="#FFF0D7"/>
</svg>
