<svg width="26" height="27" viewBox="0 0 26 27" fill="none" xmlns="http://www.w3.org/2000/svg">
<g filter="url(#filter0_d_332_705)">
<path d="M4.235 17.11C5.17 16.395 6.215 15.8313 7.37 15.4188C8.525 15.0063 9.735 14.8 11 14.8C12.265 14.8 13.475 15.0063 14.63 15.4188C15.785 15.8313 16.83 16.395 17.765 17.11C18.4067 16.3583 18.9063 15.5058 19.2638 14.5525C19.6213 13.5992 19.8 12.5817 19.8 11.5C19.8 9.06167 18.9429 6.98542 17.2288 5.27125C15.5146 3.55708 13.4383 2.7 11 2.7C8.56167 2.7 6.48542 3.55708 4.77125 5.27125C3.05708 6.98542 2.2 9.06167 2.2 11.5C2.2 12.5817 2.37875 13.5992 2.73625 14.5525C3.09375 15.5058 3.59333 16.3583 4.235 17.11ZM11 12.6C9.91833 12.6 9.00625 12.2288 8.26375 11.4863C7.52125 10.7438 7.15 9.83167 7.15 8.75C7.15 7.66833 7.52125 6.75625 8.26375 6.01375C9.00625 5.27125 9.91833 4.9 11 4.9C12.0817 4.9 12.9938 5.27125 13.7363 6.01375C14.4788 6.75625 14.85 7.66833 14.85 8.75C14.85 9.83167 14.4788 10.7438 13.7363 11.4863C12.9938 12.2288 12.0817 12.6 11 12.6ZM11 22.5C9.47833 22.5 8.04833 22.2113 6.71 21.6338C5.37167 21.0562 4.2075 20.2725 3.2175 19.2825C2.2275 18.2925 1.44375 17.1283 0.86625 15.79C0.28875 14.4517 0 13.0217 0 11.5C0 9.97833 0.28875 8.54833 0.86625 7.21C1.44375 5.87167 2.2275 4.7075 3.2175 3.7175C4.2075 2.7275 5.37167 1.94375 6.71 1.36625C8.04833 0.78875 9.47833 0.5 11 0.5C12.5217 0.5 13.9517 0.78875 15.29 1.36625C16.6283 1.94375 17.7925 2.7275 18.7825 3.7175C19.7725 4.7075 20.5562 5.87167 21.1338 7.21C21.7113 8.54833 22 9.97833 22 11.5C22 13.0217 21.7113 14.4517 21.1338 15.79C20.5562 17.1283 19.7725 18.2925 18.7825 19.2825C17.7925 20.2725 16.6283 21.0562 15.29 21.6338C13.9517 22.2113 12.5217 22.5 11 22.5ZM11 20.3C11.9717 20.3 12.8883 20.1579 13.75 19.8738C14.6117 19.5896 15.4 19.1817 16.115 18.65C15.4 18.1183 14.6117 17.7104 13.75 17.4263C12.8883 17.1421 11.9717 17 11 17C10.0283 17 9.11167 17.1421 8.25 17.4263C7.38833 17.7104 6.6 18.1183 5.885 18.65C6.6 19.1817 7.38833 19.5896 8.25 19.8738C9.11167 20.1579 10.0283 20.3 11 20.3ZM11 10.4C11.4767 10.4 11.8708 10.2442 12.1825 9.9325C12.4942 9.62083 12.65 9.22667 12.65 8.75C12.65 8.27333 12.4942 7.87917 12.1825 7.5675C11.8708 7.25583 11.4767 7.1 11 7.1C10.5233 7.1 10.1292 7.25583 9.8175 7.5675C9.50583 7.87917 9.35 8.27333 9.35 8.75C9.35 9.22667 9.50583 9.62083 9.8175 9.9325C10.1292 10.2442 10.5233 10.4 11 10.4Z" fill="#FFF0D7"/>
</g>
<defs>
<filter id="filter0_d_332_705" x="0" y="0.5" width="26" height="26" filterUnits="userSpaceOnUse" color-interpolation-filters="sRGB">
<feFlood flood-opacity="0" result="BackgroundImageFix"/>
<feColorMatrix in="SourceAlpha" type="matrix" values="0 0 0 0 0 0 0 0 0 0 0 0 0 0 0 0 0 0 127 0" result="hardAlpha"/>
<feOffset dx="2" dy="2"/>
<feGaussianBlur stdDeviation="1"/>
<feComposite in2="hardAlpha" operator="out"/>
<feColorMatrix type="matrix" values="0 0 0 0 0 0 0 0 0 0 0 0 0 0 0 0 0 0 0.75 0"/>
<feBlend mode="normal" in2="BackgroundImageFix" result="effect1_dropShadow_332_705"/>
<feBlend mode="normal" in="SourceGraphic" in2="effect1_dropShadow_332_705" result="shape"/>
</filter>
</defs>
</svg>
