<svg width="20" height="23" viewBox="0 0 20 23" fill="none" xmlns="http://www.w3.org/2000/svg">
<path d="M8.64415 22.7998V17.2998C8.64415 16.2731 8.49461 15.5123 8.19554 15.0173C7.89647 14.5223 7.50063 14.0365 7.00804 13.5598L8.51221 11.9923C8.72332 12.194 8.92563 12.4094 9.11915 12.6386C9.31267 12.8677 9.50619 13.1106 9.69971 13.3673C9.946 13.019 10.1967 12.7119 10.4518 12.4461C10.7069 12.1802 10.9664 11.919 11.2303 11.6623C11.8988 11.0206 12.5057 10.2781 13.0511 9.4348C13.5965 8.59147 13.8867 7.11564 13.9219 5.0073L12.2594 6.7398L10.7553 5.1998L14.9775 0.799805L19.1997 5.1998L17.7219 6.7398L16.033 5.0073C15.9979 7.62897 15.6108 9.49439 14.8719 10.6036C14.133 11.7127 13.3942 12.6156 12.6553 13.3123C12.0923 13.844 11.6349 14.3619 11.283 14.8661C10.9312 15.3702 10.7553 16.1815 10.7553 17.2998V22.7998H8.64415ZM3.57748 7.59231C3.50711 7.22564 3.45873 6.82231 3.43235 6.38231C3.40596 5.94231 3.38397 5.48397 3.36637 5.0073L1.67748 6.7398L0.199707 5.1998L4.42193 0.799805L8.64415 5.1998L7.13999 6.7398L5.47748 5.0348C5.47748 5.4198 5.49508 5.78189 5.53026 6.12106C5.56545 6.46022 5.60063 6.77647 5.63582 7.06981L3.57748 7.59231ZM5.84693 12.4323C5.49508 12.0473 5.15642 11.5981 4.83096 11.0848C4.50549 10.5715 4.21961 9.93897 3.97332 9.1873L6.00526 8.6648C6.18119 9.1598 6.3835 9.58147 6.61221 9.9298C6.84091 10.2781 7.08721 10.5898 7.3511 10.8648L5.84693 12.4323Z" fill="#FFF0D7"/>
</svg>
