<svg width="25" height="28" viewBox="0 0 25 28" fill="none" xmlns="http://www.w3.org/2000/svg">
<path d="M11.4444 25V19.5C11.4444 18.4733 11.2949 17.7125 10.9958 17.2175C10.6968 16.7225 10.3009 16.2367 9.80833 15.76L11.3125 14.1925C11.5236 14.3942 11.7259 14.6096 11.9194 14.8388C12.113 15.0679 12.3065 15.3108 12.5 15.5675C12.7463 15.2192 12.997 14.9121 13.2521 14.6463C13.5072 14.3804 13.7667 14.1192 14.0306 13.8625C14.6991 13.2208 15.306 12.4783 15.8514 11.635C16.3968 10.7917 16.687 9.31583 16.7222 7.2075L15.0597 8.94L13.5556 7.4L17.7778 3L22 7.4L20.5222 8.94L18.8333 7.2075C18.7981 9.82917 18.4111 11.6946 17.6722 12.8038C16.9333 13.9129 16.1944 14.8158 15.4556 15.5125C14.8926 16.0442 14.4352 16.5621 14.0833 17.0663C13.7315 17.5704 13.5556 18.3817 13.5556 19.5V25H11.4444ZM6.37778 9.7925C6.30741 9.42583 6.25903 9.0225 6.23264 8.5825C6.20625 8.1425 6.18426 7.68417 6.16667 7.2075L4.47778 8.94L3 7.4L7.22222 3L11.4444 7.4L9.94028 8.94L8.27778 7.235C8.27778 7.62 8.29537 7.98208 8.33056 8.32125C8.36574 8.66042 8.40093 8.97667 8.43611 9.27L6.37778 9.7925ZM8.64722 14.6325C8.29537 14.2475 7.95671 13.7983 7.63125 13.285C7.30579 12.7717 7.01991 12.1392 6.77361 11.3875L8.80556 10.865C8.98148 11.36 9.1838 11.7817 9.4125 12.13C9.6412 12.4783 9.8875 12.79 10.1514 13.065L8.64722 14.6325Z" fill="#FFF0D7"/>
</svg>
