<svg width="23" height="23" viewBox="0 0 23 23" fill="none" xmlns="http://www.w3.org/2000/svg">
<path d="M7.1 18.1H8.75V12.6H11.5L12.6 14.8H18.1V8.2H14.8L13.7 6H7.1V18.1ZM13.6175 13.15L12.5175 10.95H8.75V7.65H12.6825L13.7825 9.85H16.45V13.15H13.6175ZM11.5 22.5C9.97833 22.5 8.54833 22.2113 7.21 21.6338C5.87167 21.0562 4.7075 20.2725 3.7175 19.2825C2.7275 18.2925 1.94375 17.1283 1.36625 15.79C0.78875 14.4517 0.5 13.0217 0.5 11.5C0.5 9.97833 0.78875 8.54833 1.36625 7.21C1.94375 5.87167 2.7275 4.7075 3.7175 3.7175C4.7075 2.7275 5.87167 1.94375 7.21 1.36625C8.54833 0.78875 9.97833 0.5 11.5 0.5C13.0217 0.5 14.4517 0.78875 15.79 1.36625C17.1283 1.94375 18.2925 2.7275 19.2825 3.7175C20.2725 4.7075 21.0562 5.87167 21.6338 7.21C22.2113 8.54833 22.5 9.97833 22.5 11.5C22.5 13.0217 22.2113 14.4517 21.6338 15.79C21.0562 17.1283 20.2725 18.2925 19.2825 19.2825C18.2925 20.2725 17.1283 21.0562 15.79 21.6338C14.4517 22.2113 13.0217 22.5 11.5 22.5ZM11.5 20.3C13.9567 20.3 16.0375 19.4475 17.7425 17.7425C19.4475 16.0375 20.3 13.9567 20.3 11.5C20.3 9.04333 19.4475 6.9625 17.7425 5.2575C16.0375 3.5525 13.9567 2.7 11.5 2.7C9.04333 2.7 6.9625 3.5525 5.2575 5.2575C3.5525 6.9625 2.7 9.04333 2.7 11.5C2.7 13.9567 3.5525 16.0375 5.2575 17.7425C6.9625 19.4475 9.04333 20.3 11.5 20.3Z" fill="#FFF0D7"/>
</svg>
