<svg width="24" height="24" viewBox="0 0 24 24" fill="none" xmlns="http://www.w3.org/2000/svg">
<path d="M19.05 21.5999L16.125 18.6999L13.925 20.8999L13.225 20.1999C12.8417 19.8166 12.65 19.3416 12.65 18.7749C12.65 18.2082 12.8417 17.7332 13.225 17.3499L17.45 13.1249C17.8333 12.7416 18.3083 12.5499 18.875 12.5499C19.4417 12.5499 19.9167 12.7416 20.3 13.1249L21 13.8249L18.8 16.0249L21.7 18.9499C21.9 19.1499 22 19.3832 22 19.6499C22 19.9166 21.9 20.1499 21.7 20.3499L20.45 21.5999C20.25 21.7999 20.0167 21.8999 19.75 21.8999C19.4833 21.8999 19.25 21.7999 19.05 21.5999ZM22 5.8999L10.65 17.2499L10.775 17.3499C11.1583 17.7332 11.35 18.2082 11.35 18.7749C11.35 19.3416 11.1583 19.8166 10.775 20.1999L10.075 20.8999L7.875 18.6999L4.95 21.5999C4.75 21.7999 4.51667 21.8999 4.25 21.8999C3.98333 21.8999 3.75 21.7999 3.55 21.5999L2.3 20.3499C2.1 20.1499 2 19.9166 2 19.6499C2 19.3832 2.1 19.1499 2.3 18.9499L5.2 16.0249L3 13.8249L3.7 13.1249C4.08333 12.7416 4.55833 12.5499 5.125 12.5499C5.69167 12.5499 6.16667 12.7416 6.55 13.1249L6.65 13.2499L18 1.8999H22V5.8999ZM6.95 10.8499L2 5.8999V1.8999H6L10.95 6.8499L9.525 8.2499L5.175 3.8999H4V5.0749L8.35 9.4249L6.95 10.8499ZM9.25 15.8249L20 5.0749V3.8999H18.825L8.075 14.6499L9.25 15.8249Z" fill="#FFF0D7"/>
</svg>
