<svg width="23" height="23" viewBox="0 0 23 23" fill="none" xmlns="http://www.w3.org/2000/svg">
<path d="M11.5 22.5C9.97833 22.5 8.54833 22.2113 7.21 21.6338C5.87167 21.0562 4.7075 20.2725 3.7175 19.2825C2.7275 18.2925 1.94375 17.1283 1.36625 15.79C0.78875 14.4517 0.5 13.0217 0.5 11.5C0.5 9.97833 0.78875 8.54833 1.36625 7.21C1.94375 5.87167 2.7275 4.7075 3.7175 3.7175C4.7075 2.7275 5.87167 1.94375 7.21 1.36625C8.54833 0.78875 9.97833 0.5 11.5 0.5C13.0217 0.5 14.4517 0.78875 15.79 1.36625C17.1283 1.94375 18.2925 2.7275 19.2825 3.7175C20.2725 4.7075 21.0562 5.87167 21.6338 7.21C22.2113 8.54833 22.5 9.97833 22.5 11.5C22.5 13.0217 22.2113 14.4517 21.6338 15.79C21.0562 17.1283 20.2725 18.2925 19.2825 19.2825C18.2925 20.2725 17.1283 21.0562 15.79 21.6338C14.4517 22.2113 13.0217 22.5 11.5 22.5ZM11.5 20.3C13.9567 20.3 16.0375 19.4475 17.7425 17.7425C19.4475 16.0375 20.3 13.9567 20.3 11.5C20.3 9.04333 19.4475 6.9625 17.7425 5.2575C16.0375 3.5525 13.9567 2.7 11.5 2.7C9.04333 2.7 6.9625 3.5525 5.2575 5.2575C3.5525 6.9625 2.7 9.04333 2.7 11.5C2.7 13.9567 3.5525 16.0375 5.2575 17.7425C6.9625 19.4475 9.04333 20.3 11.5 20.3ZM11.5 19.2C11.9583 19.2 12.3479 19.0396 12.6687 18.7188C12.9896 18.3979 13.15 18.0083 13.15 17.55H9.85C9.85 18.0083 10.0104 18.3979 10.3313 18.7188C10.6521 19.0396 11.0417 19.2 11.5 19.2ZM8.2 16.45H14.8V14.8H8.2V16.45ZM8.2275 13.7H14.7725C15.4508 13.205 15.9917 12.5771 16.395 11.8163C16.7983 11.0554 17 10.2167 17 9.3C17 7.77833 16.4638 6.48125 15.3913 5.40875C14.3188 4.33625 13.0217 3.8 11.5 3.8C9.97833 3.8 8.68125 4.33625 7.60875 5.40875C6.53625 6.48125 6 7.77833 6 9.3C6 10.2167 6.20167 11.0554 6.605 11.8163C7.00833 12.5771 7.54917 13.205 8.2275 13.7ZM8.8325 12.05C8.46583 11.6833 8.17708 11.2663 7.96625 10.7988C7.75542 10.3313 7.65 9.83167 7.65 9.3C7.65 8.23667 8.02583 7.32917 8.7775 6.5775C9.52917 5.82583 10.4367 5.45 11.5 5.45C12.5633 5.45 13.4708 5.82583 14.2225 6.5775C14.9742 7.32917 15.35 8.23667 15.35 9.3C15.35 9.83167 15.2446 10.3313 15.0338 10.7988C14.8229 11.2663 14.5342 11.6833 14.1675 12.05H8.8325Z" fill="#FFF0D7"/>
</svg>
