<svg width="27" height="28" viewBox="0 0 27 28" fill="none" xmlns="http://www.w3.org/2000/svg">
<path d="M6.075 21.425L16.2 16.7L20.925 6.575L10.8 11.3L6.075 21.425ZM13.5 15.35C13.1175 15.35 12.7969 15.2206 12.5381 14.9619C12.2794 14.7031 12.15 14.3825 12.15 14C12.15 13.6175 12.2794 13.2969 12.5381 13.0381C12.7969 12.7794 13.1175 12.65 13.5 12.65C13.8825 12.65 14.2031 12.7794 14.4619 13.0381C14.7206 13.2969 14.85 13.6175 14.85 14C14.85 14.3825 14.7206 14.7031 14.4619 14.9619C14.2031 15.2206 13.8825 15.35 13.5 15.35ZM13.5 27.5C11.6325 27.5 9.8775 27.1456 8.235 26.4369C6.5925 25.7281 5.16375 24.7663 3.94875 23.5513C2.73375 22.3363 1.77188 20.9075 1.06313 19.265C0.354375 17.6225 0 15.8675 0 14C0 12.1325 0.354375 10.3775 1.06313 8.735C1.77188 7.0925 2.73375 5.66375 3.94875 4.44875C5.16375 3.23375 6.5925 2.27188 8.235 1.56313C9.8775 0.854375 11.6325 0.5 13.5 0.5C15.3675 0.5 17.1225 0.854375 18.765 1.56313C20.4075 2.27188 21.8363 3.23375 23.0513 4.44875C24.2663 5.66375 25.2281 7.0925 25.9369 8.735C26.6456 10.3775 27 12.1325 27 14C27 15.8675 26.6456 17.6225 25.9369 19.265C25.2281 20.9075 24.2663 22.3363 23.0513 23.5513C21.8363 24.7663 20.4075 25.7281 18.765 26.4369C17.1225 27.1456 15.3675 27.5 13.5 27.5ZM13.5 24.8C16.515 24.8 19.0688 23.7537 21.1613 21.6613C23.2537 19.5688 24.3 17.015 24.3 14C24.3 10.985 23.2537 8.43125 21.1613 6.33875C19.0688 4.24625 16.515 3.2 13.5 3.2C10.485 3.2 7.93125 4.24625 5.83875 6.33875C3.74625 8.43125 2.7 10.985 2.7 14C2.7 17.015 3.74625 19.5688 5.83875 21.6613C7.93125 23.7537 10.485 24.8 13.5 24.8Z" fill="#FFE1B0"/>
</svg>
