<svg width="24" height="24" viewBox="0 0 24 24" fill="none" xmlns="http://www.w3.org/2000/svg">
<path d="M19.7999 22.6001L16.7749 19.5751C16.3582 19.8417 15.9166 20.0709 15.4499 20.2626C14.9832 20.4542 14.4999 20.6084 13.9999 20.7251V18.6751C14.2332 18.5917 14.4624 18.5084 14.6874 18.4251C14.9124 18.3417 15.1249 18.2417 15.3249 18.1251L11.9999 14.8V20.0001L6.9999 15H2.9999V9.00005H6.1999L1.3999 4.20005L2.7999 2.80005L21.1999 21.2001L19.7999 22.6001ZM19.5999 16.8001L18.1499 15.35C18.4332 14.8334 18.6457 14.2917 18.7874 13.725C18.9291 13.1584 18.9999 12.575 18.9999 11.975C18.9999 10.4084 18.5416 9.00838 17.6249 7.77505C16.7082 6.54172 15.4999 5.70838 13.9999 5.27505V3.22505C16.0666 3.69172 17.7499 4.73755 19.0499 6.36255C20.3499 7.98755 20.9999 9.85838 20.9999 11.975C20.9999 12.8584 20.8791 13.7084 20.6374 14.525C20.3957 15.3417 20.0499 16.1001 19.5999 16.8001ZM16.2499 13.45L13.9999 11.2V7.95005C14.7832 8.31672 15.3957 8.86672 15.8374 9.60005C16.2791 10.3334 16.4999 11.1334 16.4999 12C16.4999 12.25 16.4791 12.4959 16.4374 12.7375C16.3957 12.9792 16.3332 13.2167 16.2499 13.45ZM11.9999 9.20005L9.3999 6.60005L11.9999 4.00005V9.20005ZM9.9999 15.15V12.8L8.1999 11H4.9999V13H7.8499L9.9999 15.15Z" fill="#FFF0D7"/>
</svg>
