<svg width="24" height="24" viewBox="0 0 24 24" fill="none" xmlns="http://www.w3.org/2000/svg">
<mask id="mask0_668_419" style="mask-type:alpha" maskUnits="userSpaceOnUse" x="0" y="0" width="24" height="24">
<rect width="24" height="24" fill="#D9D9D9"/>
</mask>
<g mask="url(#mask0_668_419)">
<path d="M2 12V10H5V12H2ZM5.4 17.55L4 16.1L6.1 14L7.55 15.4L5.4 17.55ZM6.1 8L4 5.9L5.4 4.45L7.55 6.6L6.1 8ZM18 20L13.25 15.25L12 19L9 9L19 12L15.3 13.3L20 18L18 20ZM10 6V3H12V6H10ZM15.9 8L14.45 6.6L16.6 4.45L18 5.85L15.9 8Z" fill="#FFF0D7"/>
</g>
</svg>
