<svg width="22" height="23" viewBox="0 0 22 23" fill="none" xmlns="http://www.w3.org/2000/svg">
<path d="M11 15.5C12.25 15.5 13.3125 15.0625 14.1875 14.1875C15.0625 13.3125 15.5 12.25 15.5 11C15.5 9.75 15.0625 8.6875 14.1875 7.8125C13.3125 6.9375 12.25 6.5 11 6.5C9.75 6.5 8.6875 6.9375 7.8125 7.8125C6.9375 8.6875 6.5 9.75 6.5 11C6.5 12.25 6.9375 13.3125 7.8125 14.1875C8.6875 15.0625 9.75 15.5 11 15.5ZM11 12C10.7166 12 10.4792 11.9042 10.2875 11.7125C10.0958 11.5208 10 11.2834 10 11C10 10.7166 10.0958 10.4792 10.2875 10.2875C10.4792 10.0958 10.7166 10 11 10C11.2834 10 11.5208 10.0958 11.7125 10.2875C11.9042 10.4792 12 10.7166 12 11C12 11.2834 11.9042 11.5208 11.7125 11.7125C11.5208 11.9042 11.2834 12 11 12ZM11 21C9.61666 21 8.31666 20.7375 7.1 20.2125C5.88334 19.6875 4.825 18.975 3.925 18.075C3.025 17.175 2.3125 16.1166 1.7875 14.9C1.2625 13.6834 1 12.3834 1 11C1 9.61666 1.2625 8.31666 1.7875 7.1C2.3125 5.88334 3.025 4.825 3.925 3.925C4.825 3.025 5.88334 2.3125 7.1 1.7875C8.31666 1.2625 9.61666 1 11 1C12.3834 1 13.6834 1.2625 14.9 1.7875C16.1166 2.3125 17.175 3.025 18.075 3.925C18.975 4.825 19.6875 5.88334 20.2125 7.1C20.7375 8.31666 21 9.61666 21 11C21 12.3834 20.7375 13.6834 20.2125 14.9C19.6875 16.1166 18.975 17.175 18.075 18.075C17.175 18.975 16.1166 19.6875 14.9 20.2125C13.6834 20.7375 12.3834 21 11 21ZM11 19C13.2334 19 15.125 18.225 16.675 16.675C18.225 15.125 19 13.2334 19 11C19 8.76666 18.225 6.875 16.675 5.325C15.125 3.775 13.2334 3 11 3C8.76666 3 6.875 3.775 5.325 5.325C3.775 6.875 3 8.76666 3 11C3 13.2334 3.775 15.125 5.325 16.675C6.875 18.225 8.76666 19 11 19Z" fill="#FFE1B0"/>
</svg>
