<svg width="22" height="23" viewBox="0 0 22 23" fill="none" xmlns="http://www.w3.org/2000/svg">
<path d="M11 16.45C12.375 16.45 13.5438 15.9688 14.5063 15.0063C15.4688 14.0438 15.95 12.875 15.95 11.5C15.95 10.125 15.4688 8.95625 14.5063 7.99375C13.5438 7.03125 12.375 6.55 11 6.55C9.625 6.55 8.45625 7.03125 7.49375 7.99375C6.53125 8.95625 6.05 10.125 6.05 11.5C6.05 12.875 6.53125 14.0438 7.49375 15.0063C8.45625 15.9688 9.625 16.45 11 16.45ZM11 12.6C10.6883 12.6 10.4271 12.4946 10.2163 12.2838C10.0054 12.0729 9.9 11.8117 9.9 11.5C9.9 11.1883 10.0054 10.9271 10.2163 10.7163C10.4271 10.5054 10.6883 10.4 11 10.4C11.3117 10.4 11.5729 10.5054 11.7838 10.7163C11.9946 10.9271 12.1 11.1883 12.1 11.5C12.1 11.8117 11.9946 12.0729 11.7838 12.2838C11.5729 12.4946 11.3117 12.6 11 12.6ZM11 22.5C9.47833 22.5 8.04833 22.2113 6.71 21.6338C5.37167 21.0562 4.2075 20.2725 3.2175 19.2825C2.2275 18.2925 1.44375 17.1283 0.86625 15.79C0.28875 14.4517 0 13.0217 0 11.5C0 9.97833 0.28875 8.54833 0.86625 7.21C1.44375 5.87167 2.2275 4.7075 3.2175 3.7175C4.2075 2.7275 5.37167 1.94375 6.71 1.36625C8.04833 0.78875 9.47833 0.5 11 0.5C12.5217 0.5 13.9517 0.78875 15.29 1.36625C16.6283 1.94375 17.7925 2.7275 18.7825 3.7175C19.7725 4.7075 20.5562 5.87167 21.1338 7.21C21.7113 8.54833 22 9.97833 22 11.5C22 13.0217 21.7113 14.4517 21.1338 15.79C20.5562 17.1283 19.7725 18.2925 18.7825 19.2825C17.7925 20.2725 16.6283 21.0562 15.29 21.6338C13.9517 22.2113 12.5217 22.5 11 22.5ZM11 20.3C13.4567 20.3 15.5375 19.4475 17.2425 17.7425C18.9475 16.0375 19.8 13.9567 19.8 11.5C19.8 9.04333 18.9475 6.9625 17.2425 5.2575C15.5375 3.5525 13.4567 2.7 11 2.7C8.54333 2.7 6.4625 3.5525 4.7575 5.2575C3.0525 6.9625 2.2 9.04333 2.2 11.5C2.2 13.9567 3.0525 16.0375 4.7575 17.7425C6.4625 19.4475 8.54333 20.3 11 20.3Z" fill="#FFE1B0"/>
</svg>
