<svg width="24" height="24" viewBox="0 0 24 24" fill="none" xmlns="http://www.w3.org/2000/svg">
<path d="M14.1818 9.6375V7.725C14.7818 7.4625 15.3955 7.26562 16.0227 7.13437C16.65 7.00312 17.3091 6.9375 18 6.9375C18.4727 6.9375 18.9364 6.975 19.3909 7.05C19.8455 7.125 20.2909 7.21875 20.7273 7.33125V9.13125C20.2909 8.9625 19.85 8.83594 19.4045 8.75156C18.9591 8.66719 18.4909 8.625 18 8.625C17.3091 8.625 16.6455 8.71406 16.0091 8.89219C15.3727 9.07031 14.7636 9.31875 14.1818 9.6375ZM14.1818 15.825V13.9125C14.7818 13.65 15.3955 13.4531 16.0227 13.3219C16.65 13.1906 17.3091 13.125 18 13.125C18.4727 13.125 18.9364 13.1625 19.3909 13.2375C19.8455 13.3125 20.2909 13.4062 20.7273 13.5187V15.3187C20.2909 15.15 19.85 15.0234 19.4045 14.9391C18.9591 14.8547 18.4909 14.8125 18 14.8125C17.3091 14.8125 16.6455 14.8969 16.0091 15.0656C15.3727 15.2344 14.7636 15.4875 14.1818 15.825ZM14.1818 12.7312V10.8187C14.7818 10.5562 15.3955 10.3594 16.0227 10.2281C16.65 10.0969 17.3091 10.0312 18 10.0312C18.4727 10.0312 18.9364 10.0687 19.3909 10.1437C19.8455 10.2187 20.2909 10.3125 20.7273 10.425V12.225C20.2909 12.0562 19.85 11.9297 19.4045 11.8453C18.9591 11.7609 18.4909 11.7187 18 11.7187C17.3091 11.7187 16.6455 11.8078 16.0091 11.9859C15.3727 12.1641 14.7636 12.4125 14.1818 12.7312ZM6 16.5C6.85455 16.5 7.68636 16.5984 8.49545 16.7953C9.30455 16.9922 10.1091 17.2875 10.9091 17.6812V6.6C10.1636 6.15 9.37273 5.8125 8.53636 5.5875C7.7 5.3625 6.85455 5.25 6 5.25C5.34545 5.25 4.69545 5.31562 4.05 5.44687C3.40455 5.57812 2.78182 5.775 2.18182 6.0375V17.175C2.81818 16.95 3.45 16.7812 4.07727 16.6687C4.70455 16.5562 5.34545 16.5 6 16.5ZM13.0909 17.6812C13.8909 17.2875 14.6955 16.9922 15.5045 16.7953C16.3136 16.5984 17.1455 16.5 18 16.5C18.6545 16.5 19.2955 16.5562 19.9227 16.6687C20.55 16.7812 21.1818 16.95 21.8182 17.175V6.0375C21.2182 5.775 20.5955 5.57812 19.95 5.44687C19.3045 5.31562 18.6545 5.25 18 5.25C17.1455 5.25 16.3 5.3625 15.4636 5.5875C14.6273 5.8125 13.8364 6.15 13.0909 6.6V17.6812ZM12 21C11.1273 20.2875 10.1818 19.7344 9.16364 19.3406C8.14545 18.9469 7.09091 18.75 6 18.75C5.23636 18.75 4.48636 18.8531 3.75 19.0594C3.01364 19.2656 2.30909 19.5562 1.63636 19.9312C1.25455 20.1375 0.886364 20.1281 0.531818 19.9031C0.177273 19.6781 0 19.35 0 18.9187V5.3625C0 5.15625 0.05 4.95937 0.15 4.77187C0.25 4.58437 0.4 4.44375 0.6 4.35C1.43636 3.9 2.30909 3.5625 3.21818 3.3375C4.12727 3.1125 5.05455 3 6 3C7.05455 3 8.08636 3.14062 9.09545 3.42187C10.1045 3.70312 11.0727 4.125 12 4.6875C12.9273 4.125 13.8955 3.70312 14.9045 3.42187C15.9136 3.14062 16.9455 3 18 3C18.9455 3 19.8727 3.1125 20.7818 3.3375C21.6909 3.5625 22.5636 3.9 23.4 4.35C23.6 4.44375 23.75 4.58437 23.85 4.77187C23.95 4.95937 24 5.15625 24 5.3625V18.9187C24 19.35 23.8227 19.6781 23.4682 19.9031C23.1136 20.1281 22.7455 20.1375 22.3636 19.9312C21.6909 19.5562 20.9864 19.2656 20.25 19.0594C19.5136 18.8531 18.7636 18.75 18 18.75C16.9091 18.75 15.8545 18.9469 14.8364 19.3406C13.8182 19.7344 12.8727 20.2875 12 21Z" fill="#FFF0D7"/>
</svg>
